<?xml version="1.0" encoding="UTF-8" standalone="no"?>
<!DOCTYPE svg PUBLIC "-//W3C//DTD SVG 1.1//EN" "http://www.w3.org/Graphics/SVG/1.1/DTD/svg11.dtd">
<svg width="100%" height="100%" viewBox="0 0 1156 1168" version="1.1" xmlns="http://www.w3.org/2000/svg" xmlns:xlink="http://www.w3.org/1999/xlink" xml:space="preserve" xmlns:serif="http://www.serif.com/" style="fill-rule:evenodd;clip-rule:evenodd;stroke-linejoin:round;stroke-miterlimit:2;">
    <g transform="matrix(1,0,0,1,-1176.2,-436.438)">
        <g transform="matrix(4.16667,0,0,4.16667,0,0)">
            <g transform="matrix(10.082,0,0,-10.082,334.44,275.68)">
                <path d="M0.181,0.691C0.123,0.613 0.069,0.533 0.028,0.444C0.021,0.428 0.01,0.415 0,0.401L0.943,-0.835C0.968,-0.588 0.994,-0.34 1,-0.092L0.299,0.835C0.259,0.787 0.219,0.74 0.181,0.691Z" style="fill:url(#_Linear1);fill-rule:nonzero;"/>
            </g>
        </g>
        <g transform="matrix(4.16667,0,0,4.16667,0,0)">
            <g transform="matrix(97.7908,0,0,-97.7908,282.29,198.107)">
                <path d="M0.556,0.68C0.52,0.631 0.484,0.583 0.448,0.535L-0,-0.053L0.478,-0.68C0.48,-0.677 0.483,-0.674 0.485,-0.672C0.485,-0.669 0.484,-0.667 0.485,-0.664C0.485,-0.657 0.486,-0.65 0.488,-0.643C0.489,-0.637 0.491,-0.63 0.492,-0.624C0.492,-0.621 0.493,-0.617 0.493,-0.614L0.336,-0.405L0.313,-0.405L0.313,-0.39L0.324,-0.39L0.066,-0.049L0.588,0.634L1,0.634C0.992,0.643 0.983,0.651 0.975,0.658C0.968,0.666 0.96,0.673 0.952,0.68L0.556,0.68Z" style="fill:url(#_Linear2);fill-rule:nonzero;"/>
            </g>
        </g>
        <g transform="matrix(4.16667,0,0,4.16667,0,0)">
            <g transform="matrix(97.7652,0,0,-97.7652,461.835,198.24)">
                <path d="M0.047,0.681C0.036,0.671 0.026,0.66 0.015,0.65C0.01,0.645 0.005,0.641 -0,0.636L0.412,0.636L0.934,-0.048L0.68,-0.384L0.691,-0.384L0.691,-0.407L0.663,-0.407L0.509,-0.609C0.514,-0.623 0.513,-0.639 0.505,-0.651C0.508,-0.659 0.512,-0.667 0.516,-0.675C0.517,-0.677 0.518,-0.679 0.519,-0.681L1,-0.052L0.512,0.589C0.489,0.62 0.467,0.65 0.444,0.681L0.047,0.681Z" style="fill:url(#_Linear3);fill-rule:nonzero;"/>
            </g>
        </g>
        <g transform="matrix(4.16667,0,0,4.16667,0,0)">
            <g transform="matrix(10.0818,0,0,-10.0818,497.133,276.098)">
                <path d="M0.014,-0.063C0.009,-0.315 -0.013,-0.567 0.011,-0.818C0.013,-0.842 0.011,-0.866 0.006,-0.89L1,0.412C1,0.413 1,0.413 0.999,0.414C0.934,0.546 0.841,0.663 0.777,0.797C0.762,0.828 0.749,0.859 0.735,0.89L0.014,-0.063Z" style="fill:url(#_Linear4);fill-rule:nonzero;"/>
            </g>
        </g>
        <g transform="matrix(4.16667,0,0,4.16667,0,0)">
            <g transform="matrix(141.459,0,0,-141.459,350.081,336.297)">
                <path d="M0.502,-0.29L0.501,-0.288L0.501,-0.287L0.501,-0.288L0.501,-0.287L0.501,-0.288L0.499,-0.29L0.02,0.343C0.02,0.343 0.02,0.343 0.02,0.343C0.014,0.334 0.007,0.326 0.003,0.316C0.002,0.315 0.001,0.313 0,0.312L0.501,-0.344L0.501,-0.345L0.501,-0.344L0.501,-0.345L0.501,-0.344L1,0.31C0.995,0.322 0.989,0.333 0.983,0.345L0.502,-0.29Z" style="fill:url(#_Linear5);fill-rule:nonzero;"/>
            </g>
        </g>
        <g transform="matrix(4.16667,0,0,4.16667,0,0)">
            <g transform="matrix(66.2148,0,0,-66.2148,342.076,158.557)">
                <path d="M0,0.297L0.024,-0.293L0.651,-0.297L0.22,-0.117L0.182,0.179L1,-0.197L0.528,0.297L0,0.297ZM0.062,-0.253L0.042,0.256L0.511,0.256L0.825,-0.072L0.133,0.246L0.183,-0.145L0.446,-0.255L0.062,-0.253Z" style="fill:url(#_Linear6);fill-rule:nonzero;"/>
            </g>
        </g>
        <g transform="matrix(4.16667,0,0,4.16667,0,0)">
            <g transform="matrix(20.7564,0,0,-20.7564,356.977,160.784)">
                <path d="M0.204,-0.252L1,-0.243L0,0.252L0.204,-0.252ZM0.246,-0.014L0.461,-0.12L0.29,-0.122L0.246,-0.014Z" style="fill:url(#_Linear7);fill-rule:nonzero;"/>
            </g>
        </g>
        <g transform="matrix(4.16667,0,0,4.16667,0,0)">
            <g transform="matrix(68.5458,0,0,-68.5458,311.692,193.865)">
                <path d="M0.297,0.161L0,-0.161L1,0.161L0.297,0.161ZM0.314,0.122L0.751,0.122L0.13,-0.078L0.314,0.122Z" style="fill:url(#_Linear8);fill-rule:nonzero;"/>
            </g>
        </g>
        <g transform="matrix(4.16667,0,0,4.16667,0,0)">
            <g transform="matrix(24.1856,0,0,-24.1856,375.286,179.585)">
                <path d="M-0,-0.317L1,-0.525L0.753,0.525L-0,-0.317ZM0.21,-0.248L0.694,0.293L0.852,-0.382L0.21,-0.248Z" style="fill:url(#_Linear9);fill-rule:nonzero;"/>
            </g>
        </g>
        <g transform="matrix(4.16667,0,0,4.16667,0,0)">
            <g transform="matrix(26.5204,0,0,-26.5204,382.811,198.531)">
                <path d="M0.265,-0.201L1,-0.173L-0,0.201L0.265,-0.201ZM0.255,-0.003L0.492,-0.091L0.318,-0.098L0.255,-0.003Z" style="fill:url(#_Linear10);fill-rule:nonzero;"/>
            </g>
        </g>
        <g transform="matrix(4.16667,0,0,4.16667,0,0)">
            <g transform="matrix(32.3171,0,0,-32.3171,365.423,218.8)">
                <path d="M-0,0.448L0.649,-0.831L0.871,-0.102L1,0.204L0.488,0.456L0.469,0.617L0.309,0.831L-0,0.448ZM0.098,0.438L0.307,0.696L0.389,0.586L0.411,0.402L0.893,0.164L0.793,-0.073L0.63,-0.61L0.098,0.438Z" style="fill:url(#_Linear11);fill-rule:nonzero;"/>
            </g>
        </g>
        <g transform="matrix(4.16667,0,0,4.16667,0,0)">
            <g transform="matrix(64.965,0,0,-64.965,308.55,215.008)">
                <path d="M0.4,0.102L-0,-0.38L0.387,-0.37L0.594,-0.077L1,0.38L0.4,0.102ZM0.422,0.066L0.838,0.259L0.562,-0.051L0.365,-0.33L0.089,-0.337L0.422,0.066Z" style="fill:url(#_Linear12);fill-rule:nonzero;"/>
            </g>
        </g>
        <g transform="matrix(4.16667,0,0,4.16667,0,0)">
            <g transform="matrix(40.5311,0,0,-40.5311,328.684,243.391)">
                <path d="M0.01,-0.156L-0,-0.972L0.458,-0.199L1,0.972L0.01,-0.156ZM0.076,-0.181L0.748,0.584L0.4,-0.169L0.069,-0.726L0.076,-0.181Z" style="fill:url(#_Linear13);fill-rule:nonzero;"/>
            </g>
        </g>
        <g transform="matrix(4.16667,0,0,4.16667,0,0)">
            <g transform="matrix(29.7247,0,0,-29.7247,343.913,269.281)">
                <path d="M0.174,0.256L-0,-0.073L0.009,-1.282L0.544,-0.159L1,0.822L0.751,1.282L0.174,0.256ZM0.09,-0.095L0.253,0.213L0.75,1.096L0.899,0.819L0.462,-0.121L0.096,-0.889L0.09,-0.095Z" style="fill:url(#_Linear14);fill-rule:nonzero;"/>
            </g>
        </g>
        <g transform="matrix(4.16667,0,0,4.16667,0,0)">
            <g transform="matrix(34.856,0,0,-34.856,364.311,291.084)">
                <path d="M0,-0.063L1,-1.253L0.464,-0.06L0.346,1.253L0,-0.063ZM0.084,-0.044L0.308,0.809L0.388,-0.073L0.704,-0.781L0.084,-0.044Z" style="fill:url(#_Linear15);fill-rule:nonzero;"/>
            </g>
        </g>
        <g transform="matrix(4.16667,0,0,4.16667,0,0)">
            <g transform="matrix(32.4479,0,0,-32.4479,388.332,243.89)">
                <path d="M0.052,-0.089L-0,-0.295L0.478,-0.574L1,-0.26L1,-0.138L0.322,0.574L0.052,-0.089ZM0.095,-0.255L0.131,-0.115L0.351,0.424L0.917,-0.171L0.917,-0.213L0.477,-0.478L0.095,-0.255Z" style="fill:url(#_Linear16);fill-rule:nonzero;"/>
            </g>
        </g>
        <g transform="matrix(4.16667,0,0,4.16667,0,0)">
            <g transform="matrix(50.0118,0,0,-50.0118,373.397,153.393)">
                <path d="M-0,0.545L1,-0.553L0.467,0.553L-0,0.545ZM0.119,0.494L0.433,0.499L0.792,-0.246L0.119,0.494Z" style="fill:url(#_Linear17);fill-rule:nonzero;"/>
            </g>
        </g>
        <g transform="matrix(4.16667,0,0,4.16667,0,0)">
            <g transform="matrix(66.2148,0,0,-66.2148,433.599,158.557)">
                <path d="M0.472,0.297L-0,-0.197L0.818,0.179L0.78,-0.117L0.349,-0.297L0.976,-0.293L1,0.297L0.472,0.297ZM0.489,0.256L0.958,0.256L0.938,-0.253L0.554,-0.255L0.817,-0.145L0.867,0.246L0.175,-0.072L0.489,0.256Z" style="fill:url(#_Linear18);fill-rule:nonzero;"/>
            </g>
        </g>
        <g transform="matrix(4.16667,0,0,4.16667,0,0)">
            <g transform="matrix(20.7564,0,0,-20.7564,464.156,160.784)">
                <path d="M-0,-0.243L0.796,-0.252L1,0.252L-0,-0.243ZM0.539,-0.12L0.754,-0.014L0.71,-0.122L0.539,-0.12Z" style="fill:url(#_Linear19);fill-rule:nonzero;"/>
            </g>
        </g>
        <g transform="matrix(4.16667,0,0,4.16667,0,0)">
            <g transform="matrix(68.5458,0,0,-68.5458,461.652,193.865)">
                <path d="M-0,0.161L1,-0.161L0.703,0.161L-0,0.161ZM0.249,0.122L0.686,0.122L0.87,-0.078L0.249,0.122Z" style="fill:url(#_Linear20);fill-rule:nonzero;"/>
            </g>
        </g>
        <g transform="matrix(4.16667,0,0,4.16667,0,0)">
            <g transform="matrix(24.1856,0,0,-24.1856,442.418,179.585)">
                <path d="M-0,-0.525L1,-0.317L0.247,0.525L-0,-0.525ZM0.306,0.293L0.79,-0.248L0.148,-0.382L0.306,0.293Z" style="fill:url(#_Linear21);fill-rule:nonzero;"/>
            </g>
        </g>
        <g transform="matrix(4.16667,0,0,4.16667,0,0)">
            <g transform="matrix(26.5204,0,0,-26.5204,432.558,198.531)">
                <path d="M0,-0.173L0.735,-0.201L1,0.201L0,-0.173ZM0.508,-0.091L0.745,-0.003L0.682,-0.098L0.508,-0.091Z" style="fill:url(#_Linear22);fill-rule:nonzero;"/>
            </g>
        </g>
        <g transform="matrix(4.16667,0,0,4.16667,0,0)">
            <g transform="matrix(32.3171,0,0,-32.3171,444.15,218.8)">
                <path d="M0.531,0.617L0.512,0.456L0,0.204L0.129,-0.102L0.351,-0.831L1,0.448L0.691,0.831L0.531,0.617ZM0.207,-0.073L0.107,0.164L0.589,0.402L0.611,0.586L0.693,0.696L0.902,0.438L0.37,-0.61L0.207,-0.073Z" style="fill:url(#_Linear23);fill-rule:nonzero;"/>
            </g>
        </g>
        <g transform="matrix(4.16667,0,0,4.16667,0,0)">
            <g transform="matrix(64.965,0,0,-64.965,468.375,215.008)">
                <path d="M0.406,-0.077L0.613,-0.37L1,-0.38L0.6,0.102L-0,0.38L0.406,-0.077ZM0.635,-0.33L0.438,-0.051L0.162,0.259L0.578,0.066L0.911,-0.337L0.635,-0.33Z" style="fill:url(#_Linear24);fill-rule:nonzero;"/>
            </g>
        </g>
        <g transform="matrix(4.16667,0,0,4.16667,0,0)">
            <g transform="matrix(40.5311,0,0,-40.5311,472.675,243.391)">
                <path d="M0.542,-0.199L1,-0.972L0.99,-0.156L0,0.972L0.542,-0.199ZM0.6,-0.169L0.252,0.584L0.924,-0.181L0.931,-0.726L0.6,-0.169Z" style="fill:url(#_Linear25);fill-rule:nonzero;"/>
            </g>
        </g>
        <g transform="matrix(4.16667,0,0,4.16667,0,0)">
            <g transform="matrix(29.7247,0,0,-29.7247,468.252,269.281)">
                <path d="M0,0.822L0.456,-0.159L0.991,-1.282L1,-0.073L0.826,0.256L0.248,1.282L0,0.822ZM0.538,-0.121L0.101,0.819L0.25,1.096L0.747,0.213L0.91,-0.095L0.904,-0.889L0.538,-0.121Z" style="fill:url(#_Linear26);fill-rule:nonzero;"/>
            </g>
        </g>
        <g transform="matrix(4.16667,0,0,4.16667,0,0)">
            <g transform="matrix(34.856,0,0,-34.856,442.722,291.084)">
                <path d="M0.536,-0.06L0,-1.253L1,-0.063L0.654,1.253L0.536,-0.06ZM0.612,-0.073L0.692,0.809L0.916,-0.044L0.296,-0.781L0.612,-0.073Z" style="fill:url(#_Linear27);fill-rule:nonzero;"/>
            </g>
        </g>
        <g transform="matrix(4.16667,0,0,4.16667,0,0)">
            <g transform="matrix(74.6249,0,0,-74.6249,383.632,306.696)">
                <path d="M-0,0.556L0.507,-0.573L1,0.555L0.968,0.572L0.505,-0.175L0.032,0.573L-0,0.556ZM0.136,0.341L0.505,-0.243L0.867,0.34L0.506,-0.485L0.136,0.341Z" style="fill:url(#_Linear28);fill-rule:nonzero;"/>
            </g>
        </g>
        <g transform="matrix(4.16667,0,0,4.16667,0,0)">
            <g transform="matrix(46.5592,0,0,-46.5592,397.465,276.221)">
                <path d="M0.197,0.169L-0,0.033L0.328,-0.235L0.307,-0.136L0.52,-0.34L0.722,-0.143L0.695,-0.268L1,0.013L0.818,0.159L0.506,0.34L0.197,0.169ZM0.096,0.029L0.227,0.12L0.505,0.274L0.786,0.112L0.912,0.01L0.791,-0.101L0.82,0.032L0.52,-0.26L0.211,0.035L0.237,-0.086L0.096,0.029Z" style="fill:url(#_Linear29);fill-rule:nonzero;"/>
            </g>
        </g>
        <g transform="matrix(4.16667,0,0,4.16667,0,0)">
            <g transform="matrix(32.4479,0,0,-32.4479,421.11,243.89)">
                <path d="M0,-0.138L0,-0.26L0.522,-0.574L1,-0.295L0.948,-0.089L0.678,0.574L0,-0.138ZM0.083,-0.213L0.083,-0.171L0.649,0.424L0.869,-0.115L0.905,-0.255L0.523,-0.478L0.083,-0.213Z" style="fill:url(#_Linear30);fill-rule:nonzero;"/>
            </g>
        </g>
        <g transform="matrix(4.16667,0,0,4.16667,0,0)">
            <g transform="matrix(46.3448,0,0,-46.3448,398.226,196.263)">
                <path d="M0.258,0.041L0,-0.666L1,-0.671L0.736,0.036L0.971,0.646L0.497,0.174L0.029,0.671L0.258,0.041ZM0.082,-0.609L0.32,0.041L0.179,0.427L0.495,0.091L0.82,0.414L0.675,0.037L0.917,-0.613L0.082,-0.609Z" style="fill:url(#_Linear31);fill-rule:nonzero;"/>
            </g>
        </g>
        <g transform="matrix(4.16667,0,0,4.16667,0,0)">
            <g transform="matrix(50.0118,0,0,-50.0118,418.481,153.393)">
                <path d="M-0,-0.553L1,0.545L0.533,0.553L-0,-0.553ZM0.567,0.499L0.881,0.494L0.208,-0.246L0.567,0.499Z" style="fill:url(#_Linear32);fill-rule:nonzero;"/>
            </g>
        </g>
        <g transform="matrix(4.16667,0,0,4.16667,0,0)">
            <g transform="matrix(31.7288,0,0,-31.7288,405.303,134.004)">
                <path d="M-0,0.199L0.487,-0.922L1,0.194L0.51,0.922L-0,0.199ZM0.096,0.189L0.508,0.773L0.904,0.186L0.489,-0.715L0.096,0.189Z" style="fill:url(#_Linear33);fill-rule:nonzero;"/>
            </g>
        </g>
    </g>
    <defs>
        <linearGradient id="_Linear1" x1="0" y1="0" x2="1" y2="0" gradientUnits="userSpaceOnUse" gradientTransform="matrix(1,0,0,-1,0,3.79688e-05)"><stop offset="0" style="stop-color:rgb(198,133,56);stop-opacity:1"/><stop offset="0.48" style="stop-color:rgb(252,242,165);stop-opacity:1"/><stop offset="0.62" style="stop-color:rgb(249,237,159);stop-opacity:1"/><stop offset="0.71" style="stop-color:rgb(252,232,150);stop-opacity:1"/><stop offset="0.79" style="stop-color:rgb(242,215,134);stop-opacity:1"/><stop offset="0.87" style="stop-color:rgb(231,193,115);stop-opacity:1"/><stop offset="0.94" style="stop-color:rgb(215,166,88);stop-opacity:1"/><stop offset="1" style="stop-color:rgb(205,136,56);stop-opacity:1"/></linearGradient>
        <linearGradient id="_Linear2" x1="0" y1="0" x2="1" y2="0" gradientUnits="userSpaceOnUse" gradientTransform="matrix(1,0,0,-1,0,7.54672e-07)"><stop offset="0" style="stop-color:rgb(198,133,56);stop-opacity:1"/><stop offset="0.48" style="stop-color:rgb(252,242,165);stop-opacity:1"/><stop offset="0.62" style="stop-color:rgb(249,237,159);stop-opacity:1"/><stop offset="0.71" style="stop-color:rgb(252,232,150);stop-opacity:1"/><stop offset="0.79" style="stop-color:rgb(242,215,134);stop-opacity:1"/><stop offset="0.87" style="stop-color:rgb(231,193,115);stop-opacity:1"/><stop offset="0.94" style="stop-color:rgb(215,166,88);stop-opacity:1"/><stop offset="1" style="stop-color:rgb(205,136,56);stop-opacity:1"/></linearGradient>
        <linearGradient id="_Linear3" x1="0" y1="0" x2="1" y2="0" gradientUnits="userSpaceOnUse" gradientTransform="matrix(1,0,0,-1,0,-4.53535e-06)"><stop offset="0" style="stop-color:rgb(198,133,56);stop-opacity:1"/><stop offset="0.48" style="stop-color:rgb(252,242,165);stop-opacity:1"/><stop offset="0.62" style="stop-color:rgb(249,237,159);stop-opacity:1"/><stop offset="0.71" style="stop-color:rgb(252,232,150);stop-opacity:1"/><stop offset="0.79" style="stop-color:rgb(242,215,134);stop-opacity:1"/><stop offset="0.87" style="stop-color:rgb(231,193,115);stop-opacity:1"/><stop offset="0.94" style="stop-color:rgb(215,166,88);stop-opacity:1"/><stop offset="1" style="stop-color:rgb(205,136,56);stop-opacity:1"/></linearGradient>
        <linearGradient id="_Linear4" x1="0" y1="0" x2="1" y2="0" gradientUnits="userSpaceOnUse" gradientTransform="matrix(1,0,0,-1,0,1.39063e-05)"><stop offset="0" style="stop-color:rgb(198,133,56);stop-opacity:1"/><stop offset="0.48" style="stop-color:rgb(252,242,165);stop-opacity:1"/><stop offset="0.62" style="stop-color:rgb(249,237,159);stop-opacity:1"/><stop offset="0.71" style="stop-color:rgb(252,232,150);stop-opacity:1"/><stop offset="0.79" style="stop-color:rgb(242,215,134);stop-opacity:1"/><stop offset="0.87" style="stop-color:rgb(231,193,115);stop-opacity:1"/><stop offset="0.94" style="stop-color:rgb(215,166,88);stop-opacity:1"/><stop offset="1" style="stop-color:rgb(205,136,56);stop-opacity:1"/></linearGradient>
        <linearGradient id="_Linear5" x1="0" y1="0" x2="1" y2="0" gradientUnits="userSpaceOnUse" gradientTransform="matrix(1,0,0,-1,0,2.21266e-06)"><stop offset="0" style="stop-color:rgb(198,133,56);stop-opacity:1"/><stop offset="0.48" style="stop-color:rgb(252,242,165);stop-opacity:1"/><stop offset="0.62" style="stop-color:rgb(249,237,159);stop-opacity:1"/><stop offset="0.71" style="stop-color:rgb(252,232,150);stop-opacity:1"/><stop offset="0.79" style="stop-color:rgb(242,215,134);stop-opacity:1"/><stop offset="0.87" style="stop-color:rgb(231,193,115);stop-opacity:1"/><stop offset="0.94" style="stop-color:rgb(215,166,88);stop-opacity:1"/><stop offset="1" style="stop-color:rgb(205,136,56);stop-opacity:1"/></linearGradient>
        <linearGradient id="_Linear6" x1="0" y1="0" x2="1" y2="0" gradientUnits="userSpaceOnUse" gradientTransform="matrix(1,0,0,-1,0,6.84439e-06)"><stop offset="0" style="stop-color:rgb(198,133,56);stop-opacity:1"/><stop offset="0.48" style="stop-color:rgb(252,242,165);stop-opacity:1"/><stop offset="0.62" style="stop-color:rgb(249,237,159);stop-opacity:1"/><stop offset="0.71" style="stop-color:rgb(252,232,150);stop-opacity:1"/><stop offset="0.79" style="stop-color:rgb(242,215,134);stop-opacity:1"/><stop offset="0.87" style="stop-color:rgb(231,193,115);stop-opacity:1"/><stop offset="0.94" style="stop-color:rgb(215,166,88);stop-opacity:1"/><stop offset="1" style="stop-color:rgb(205,136,56);stop-opacity:1"/></linearGradient>
        <linearGradient id="_Linear7" x1="0" y1="0" x2="1" y2="0" gradientUnits="userSpaceOnUse" gradientTransform="matrix(1,0,0,-1,0,1.98782e-05)"><stop offset="0" style="stop-color:rgb(198,133,56);stop-opacity:1"/><stop offset="0.48" style="stop-color:rgb(252,242,165);stop-opacity:1"/><stop offset="0.62" style="stop-color:rgb(249,237,159);stop-opacity:1"/><stop offset="0.71" style="stop-color:rgb(252,232,150);stop-opacity:1"/><stop offset="0.79" style="stop-color:rgb(242,215,134);stop-opacity:1"/><stop offset="0.87" style="stop-color:rgb(231,193,115);stop-opacity:1"/><stop offset="0.94" style="stop-color:rgb(215,166,88);stop-opacity:1"/><stop offset="1" style="stop-color:rgb(205,136,56);stop-opacity:1"/></linearGradient>
        <linearGradient id="_Linear8" x1="0" y1="0" x2="1" y2="0" gradientUnits="userSpaceOnUse" gradientTransform="matrix(1,0,0,-1,0,1.27798e-05)"><stop offset="0" style="stop-color:rgb(198,133,56);stop-opacity:1"/><stop offset="0.48" style="stop-color:rgb(252,242,165);stop-opacity:1"/><stop offset="0.62" style="stop-color:rgb(249,237,159);stop-opacity:1"/><stop offset="0.71" style="stop-color:rgb(252,232,150);stop-opacity:1"/><stop offset="0.79" style="stop-color:rgb(242,215,134);stop-opacity:1"/><stop offset="0.87" style="stop-color:rgb(231,193,115);stop-opacity:1"/><stop offset="0.94" style="stop-color:rgb(215,166,88);stop-opacity:1"/><stop offset="1" style="stop-color:rgb(205,136,56);stop-opacity:1"/></linearGradient>
        <linearGradient id="_Linear9" x1="0" y1="0" x2="1" y2="0" gradientUnits="userSpaceOnUse" gradientTransform="matrix(1,0,0,-1,0,3.10681e-05)"><stop offset="0" style="stop-color:rgb(198,133,56);stop-opacity:1"/><stop offset="0.48" style="stop-color:rgb(252,242,165);stop-opacity:1"/><stop offset="0.62" style="stop-color:rgb(249,237,159);stop-opacity:1"/><stop offset="0.71" style="stop-color:rgb(252,232,150);stop-opacity:1"/><stop offset="0.79" style="stop-color:rgb(242,215,134);stop-opacity:1"/><stop offset="0.87" style="stop-color:rgb(231,193,115);stop-opacity:1"/><stop offset="0.94" style="stop-color:rgb(215,166,88);stop-opacity:1"/><stop offset="1" style="stop-color:rgb(205,136,56);stop-opacity:1"/></linearGradient>
        <linearGradient id="_Linear10" x1="0" y1="0" x2="1" y2="0" gradientUnits="userSpaceOnUse" gradientTransform="matrix(1,0,0,-1,0,-4.96975e-06)"><stop offset="0" style="stop-color:rgb(198,133,56);stop-opacity:1"/><stop offset="0.48" style="stop-color:rgb(252,242,165);stop-opacity:1"/><stop offset="0.62" style="stop-color:rgb(249,237,159);stop-opacity:1"/><stop offset="0.71" style="stop-color:rgb(252,232,150);stop-opacity:1"/><stop offset="0.79" style="stop-color:rgb(242,215,134);stop-opacity:1"/><stop offset="0.87" style="stop-color:rgb(231,193,115);stop-opacity:1"/><stop offset="0.94" style="stop-color:rgb(215,166,88);stop-opacity:1"/><stop offset="1" style="stop-color:rgb(205,136,56);stop-opacity:1"/></linearGradient>
        <linearGradient id="_Linear11" x1="0" y1="0" x2="1" y2="0" gradientUnits="userSpaceOnUse" gradientTransform="matrix(1,0,0,-1,0,8.37327e-06)"><stop offset="0" style="stop-color:rgb(198,133,56);stop-opacity:1"/><stop offset="0.48" style="stop-color:rgb(252,242,165);stop-opacity:1"/><stop offset="0.62" style="stop-color:rgb(249,237,159);stop-opacity:1"/><stop offset="0.71" style="stop-color:rgb(252,232,150);stop-opacity:1"/><stop offset="0.79" style="stop-color:rgb(242,215,134);stop-opacity:1"/><stop offset="0.87" style="stop-color:rgb(231,193,115);stop-opacity:1"/><stop offset="0.94" style="stop-color:rgb(215,166,88);stop-opacity:1"/><stop offset="1" style="stop-color:rgb(205,136,56);stop-opacity:1"/></linearGradient>
        <linearGradient id="_Linear12" x1="0" y1="0" x2="1" y2="0" gradientUnits="userSpaceOnUse" gradientTransform="matrix(1,0,0,-1,0,1.10521e-06)"><stop offset="0" style="stop-color:rgb(198,133,56);stop-opacity:1"/><stop offset="0.48" style="stop-color:rgb(252,242,165);stop-opacity:1"/><stop offset="0.62" style="stop-color:rgb(249,237,159);stop-opacity:1"/><stop offset="0.71" style="stop-color:rgb(252,232,150);stop-opacity:1"/><stop offset="0.79" style="stop-color:rgb(242,215,134);stop-opacity:1"/><stop offset="0.87" style="stop-color:rgb(231,193,115);stop-opacity:1"/><stop offset="0.94" style="stop-color:rgb(215,166,88);stop-opacity:1"/><stop offset="1" style="stop-color:rgb(205,136,56);stop-opacity:1"/></linearGradient>
        <linearGradient id="_Linear13" x1="0" y1="0" x2="1" y2="0" gradientUnits="userSpaceOnUse" gradientTransform="matrix(1,0,0,-1,0,1.55387e-05)"><stop offset="0" style="stop-color:rgb(198,133,56);stop-opacity:1"/><stop offset="0.48" style="stop-color:rgb(252,242,165);stop-opacity:1"/><stop offset="0.62" style="stop-color:rgb(249,237,159);stop-opacity:1"/><stop offset="0.71" style="stop-color:rgb(252,232,150);stop-opacity:1"/><stop offset="0.79" style="stop-color:rgb(242,215,134);stop-opacity:1"/><stop offset="0.87" style="stop-color:rgb(231,193,115);stop-opacity:1"/><stop offset="0.94" style="stop-color:rgb(215,166,88);stop-opacity:1"/><stop offset="1" style="stop-color:rgb(205,136,56);stop-opacity:1"/></linearGradient>
        <linearGradient id="_Linear14" x1="0" y1="0" x2="1" y2="0" gradientUnits="userSpaceOnUse" gradientTransform="matrix(1,0,0,-1,0,9.15064e-06)"><stop offset="0" style="stop-color:rgb(198,133,56);stop-opacity:1"/><stop offset="0.48" style="stop-color:rgb(252,242,165);stop-opacity:1"/><stop offset="0.62" style="stop-color:rgb(249,237,159);stop-opacity:1"/><stop offset="0.71" style="stop-color:rgb(252,232,150);stop-opacity:1"/><stop offset="0.79" style="stop-color:rgb(242,215,134);stop-opacity:1"/><stop offset="0.87" style="stop-color:rgb(231,193,115);stop-opacity:1"/><stop offset="0.94" style="stop-color:rgb(215,166,88);stop-opacity:1"/><stop offset="1" style="stop-color:rgb(205,136,56);stop-opacity:1"/></linearGradient>
        <linearGradient id="_Linear15" x1="0" y1="0" x2="1" y2="0" gradientUnits="userSpaceOnUse" gradientTransform="matrix(1,0,0,-1,0,-7.13221e-06)"><stop offset="0" style="stop-color:rgb(198,133,56);stop-opacity:1"/><stop offset="0.48" style="stop-color:rgb(252,242,165);stop-opacity:1"/><stop offset="0.62" style="stop-color:rgb(249,237,159);stop-opacity:1"/><stop offset="0.71" style="stop-color:rgb(252,232,150);stop-opacity:1"/><stop offset="0.79" style="stop-color:rgb(242,215,134);stop-opacity:1"/><stop offset="0.87" style="stop-color:rgb(231,193,115);stop-opacity:1"/><stop offset="0.94" style="stop-color:rgb(215,166,88);stop-opacity:1"/><stop offset="1" style="stop-color:rgb(205,136,56);stop-opacity:1"/></linearGradient>
        <linearGradient id="_Linear16" x1="0" y1="0" x2="1" y2="0" gradientUnits="userSpaceOnUse" gradientTransform="matrix(1,0,0,-1,0,4.08039e-06)"><stop offset="0" style="stop-color:rgb(198,133,56);stop-opacity:1"/><stop offset="0.48" style="stop-color:rgb(252,242,165);stop-opacity:1"/><stop offset="0.62" style="stop-color:rgb(249,237,159);stop-opacity:1"/><stop offset="0.71" style="stop-color:rgb(252,232,150);stop-opacity:1"/><stop offset="0.79" style="stop-color:rgb(242,215,134);stop-opacity:1"/><stop offset="0.87" style="stop-color:rgb(231,193,115);stop-opacity:1"/><stop offset="0.94" style="stop-color:rgb(215,166,88);stop-opacity:1"/><stop offset="1" style="stop-color:rgb(205,136,56);stop-opacity:1"/></linearGradient>
        <linearGradient id="_Linear17" x1="0" y1="0" x2="1" y2="0" gradientUnits="userSpaceOnUse" gradientTransform="matrix(1,0,0,-1,0,-5.81063e-06)"><stop offset="0" style="stop-color:rgb(198,133,56);stop-opacity:1"/><stop offset="0.48" style="stop-color:rgb(252,242,165);stop-opacity:1"/><stop offset="0.62" style="stop-color:rgb(249,237,159);stop-opacity:1"/><stop offset="0.71" style="stop-color:rgb(252,232,150);stop-opacity:1"/><stop offset="0.79" style="stop-color:rgb(242,215,134);stop-opacity:1"/><stop offset="0.87" style="stop-color:rgb(231,193,115);stop-opacity:1"/><stop offset="0.94" style="stop-color:rgb(215,166,88);stop-opacity:1"/><stop offset="1" style="stop-color:rgb(205,136,56);stop-opacity:1"/></linearGradient>
        <linearGradient id="_Linear18" x1="0" y1="0" x2="1" y2="0" gradientUnits="userSpaceOnUse" gradientTransform="matrix(1,0,0,-1,0,6.84439e-06)"><stop offset="0" style="stop-color:rgb(198,133,56);stop-opacity:1"/><stop offset="0.48" style="stop-color:rgb(252,242,165);stop-opacity:1"/><stop offset="0.62" style="stop-color:rgb(249,237,159);stop-opacity:1"/><stop offset="0.71" style="stop-color:rgb(252,232,150);stop-opacity:1"/><stop offset="0.79" style="stop-color:rgb(242,215,134);stop-opacity:1"/><stop offset="0.87" style="stop-color:rgb(231,193,115);stop-opacity:1"/><stop offset="0.94" style="stop-color:rgb(215,166,88);stop-opacity:1"/><stop offset="1" style="stop-color:rgb(205,136,56);stop-opacity:1"/></linearGradient>
        <linearGradient id="_Linear19" x1="0" y1="0" x2="1" y2="0" gradientUnits="userSpaceOnUse" gradientTransform="matrix(1,0,0,-1,0,1.98782e-05)"><stop offset="0" style="stop-color:rgb(198,133,56);stop-opacity:1"/><stop offset="0.48" style="stop-color:rgb(252,242,165);stop-opacity:1"/><stop offset="0.62" style="stop-color:rgb(249,237,159);stop-opacity:1"/><stop offset="0.71" style="stop-color:rgb(252,232,150);stop-opacity:1"/><stop offset="0.79" style="stop-color:rgb(242,215,134);stop-opacity:1"/><stop offset="0.87" style="stop-color:rgb(231,193,115);stop-opacity:1"/><stop offset="0.94" style="stop-color:rgb(215,166,88);stop-opacity:1"/><stop offset="1" style="stop-color:rgb(205,136,56);stop-opacity:1"/></linearGradient>
        <linearGradient id="_Linear20" x1="0" y1="0" x2="1" y2="0" gradientUnits="userSpaceOnUse" gradientTransform="matrix(1,0,0,-1,0,1.27798e-05)"><stop offset="0" style="stop-color:rgb(198,133,56);stop-opacity:1"/><stop offset="0.48" style="stop-color:rgb(252,242,165);stop-opacity:1"/><stop offset="0.62" style="stop-color:rgb(249,237,159);stop-opacity:1"/><stop offset="0.71" style="stop-color:rgb(252,232,150);stop-opacity:1"/><stop offset="0.79" style="stop-color:rgb(242,215,134);stop-opacity:1"/><stop offset="0.87" style="stop-color:rgb(231,193,115);stop-opacity:1"/><stop offset="0.94" style="stop-color:rgb(215,166,88);stop-opacity:1"/><stop offset="1" style="stop-color:rgb(205,136,56);stop-opacity:1"/></linearGradient>
        <linearGradient id="_Linear21" x1="0" y1="0" x2="1" y2="0" gradientUnits="userSpaceOnUse" gradientTransform="matrix(1,0,0,-1,0,3.10681e-05)"><stop offset="0" style="stop-color:rgb(198,133,56);stop-opacity:1"/><stop offset="0.48" style="stop-color:rgb(252,242,165);stop-opacity:1"/><stop offset="0.62" style="stop-color:rgb(249,237,159);stop-opacity:1"/><stop offset="0.71" style="stop-color:rgb(252,232,150);stop-opacity:1"/><stop offset="0.79" style="stop-color:rgb(242,215,134);stop-opacity:1"/><stop offset="0.87" style="stop-color:rgb(231,193,115);stop-opacity:1"/><stop offset="0.94" style="stop-color:rgb(215,166,88);stop-opacity:1"/><stop offset="1" style="stop-color:rgb(205,136,56);stop-opacity:1"/></linearGradient>
        <linearGradient id="_Linear22" x1="0" y1="0" x2="1" y2="0" gradientUnits="userSpaceOnUse" gradientTransform="matrix(1,0,0,-1,0,-4.96975e-06)"><stop offset="0" style="stop-color:rgb(198,133,56);stop-opacity:1"/><stop offset="0.48" style="stop-color:rgb(252,242,165);stop-opacity:1"/><stop offset="0.62" style="stop-color:rgb(249,237,159);stop-opacity:1"/><stop offset="0.71" style="stop-color:rgb(252,232,150);stop-opacity:1"/><stop offset="0.79" style="stop-color:rgb(242,215,134);stop-opacity:1"/><stop offset="0.87" style="stop-color:rgb(231,193,115);stop-opacity:1"/><stop offset="0.94" style="stop-color:rgb(215,166,88);stop-opacity:1"/><stop offset="1" style="stop-color:rgb(205,136,56);stop-opacity:1"/></linearGradient>
        <linearGradient id="_Linear23" x1="0" y1="0" x2="1" y2="0" gradientUnits="userSpaceOnUse" gradientTransform="matrix(1,0,0,-1,0,8.37327e-06)"><stop offset="0" style="stop-color:rgb(198,133,56);stop-opacity:1"/><stop offset="0.48" style="stop-color:rgb(252,242,165);stop-opacity:1"/><stop offset="0.62" style="stop-color:rgb(249,237,159);stop-opacity:1"/><stop offset="0.71" style="stop-color:rgb(252,232,150);stop-opacity:1"/><stop offset="0.79" style="stop-color:rgb(242,215,134);stop-opacity:1"/><stop offset="0.87" style="stop-color:rgb(231,193,115);stop-opacity:1"/><stop offset="0.94" style="stop-color:rgb(215,166,88);stop-opacity:1"/><stop offset="1" style="stop-color:rgb(205,136,56);stop-opacity:1"/></linearGradient>
        <linearGradient id="_Linear24" x1="0" y1="0" x2="1" y2="0" gradientUnits="userSpaceOnUse" gradientTransform="matrix(1,0,0,-1,0,1.10521e-06)"><stop offset="0" style="stop-color:rgb(198,133,56);stop-opacity:1"/><stop offset="0.48" style="stop-color:rgb(252,242,165);stop-opacity:1"/><stop offset="0.62" style="stop-color:rgb(249,237,159);stop-opacity:1"/><stop offset="0.71" style="stop-color:rgb(252,232,150);stop-opacity:1"/><stop offset="0.79" style="stop-color:rgb(242,215,134);stop-opacity:1"/><stop offset="0.87" style="stop-color:rgb(231,193,115);stop-opacity:1"/><stop offset="0.94" style="stop-color:rgb(215,166,88);stop-opacity:1"/><stop offset="1" style="stop-color:rgb(205,136,56);stop-opacity:1"/></linearGradient>
        <linearGradient id="_Linear25" x1="0" y1="0" x2="1" y2="0" gradientUnits="userSpaceOnUse" gradientTransform="matrix(1,0,0,-1,0,1.55387e-05)"><stop offset="0" style="stop-color:rgb(198,133,56);stop-opacity:1"/><stop offset="0.48" style="stop-color:rgb(252,242,165);stop-opacity:1"/><stop offset="0.62" style="stop-color:rgb(249,237,159);stop-opacity:1"/><stop offset="0.71" style="stop-color:rgb(252,232,150);stop-opacity:1"/><stop offset="0.79" style="stop-color:rgb(242,215,134);stop-opacity:1"/><stop offset="0.87" style="stop-color:rgb(231,193,115);stop-opacity:1"/><stop offset="0.94" style="stop-color:rgb(215,166,88);stop-opacity:1"/><stop offset="1" style="stop-color:rgb(205,136,56);stop-opacity:1"/></linearGradient>
        <linearGradient id="_Linear26" x1="0" y1="0" x2="1" y2="0" gradientUnits="userSpaceOnUse" gradientTransform="matrix(1,0,0,-1,0,9.15064e-06)"><stop offset="0" style="stop-color:rgb(198,133,56);stop-opacity:1"/><stop offset="0.48" style="stop-color:rgb(252,242,165);stop-opacity:1"/><stop offset="0.62" style="stop-color:rgb(249,237,159);stop-opacity:1"/><stop offset="0.71" style="stop-color:rgb(252,232,150);stop-opacity:1"/><stop offset="0.79" style="stop-color:rgb(242,215,134);stop-opacity:1"/><stop offset="0.87" style="stop-color:rgb(231,193,115);stop-opacity:1"/><stop offset="0.94" style="stop-color:rgb(215,166,88);stop-opacity:1"/><stop offset="1" style="stop-color:rgb(205,136,56);stop-opacity:1"/></linearGradient>
        <linearGradient id="_Linear27" x1="0" y1="0" x2="1" y2="0" gradientUnits="userSpaceOnUse" gradientTransform="matrix(1,0,0,-1,0,-7.13221e-06)"><stop offset="0" style="stop-color:rgb(198,133,56);stop-opacity:1"/><stop offset="0.48" style="stop-color:rgb(252,242,165);stop-opacity:1"/><stop offset="0.62" style="stop-color:rgb(249,237,159);stop-opacity:1"/><stop offset="0.71" style="stop-color:rgb(252,232,150);stop-opacity:1"/><stop offset="0.79" style="stop-color:rgb(242,215,134);stop-opacity:1"/><stop offset="0.87" style="stop-color:rgb(231,193,115);stop-opacity:1"/><stop offset="0.94" style="stop-color:rgb(215,166,88);stop-opacity:1"/><stop offset="1" style="stop-color:rgb(205,136,56);stop-opacity:1"/></linearGradient>
        <linearGradient id="_Linear28" x1="0" y1="0" x2="1" y2="0" gradientUnits="userSpaceOnUse" gradientTransform="matrix(1,0,0,-1,0,-1.17655e-06)"><stop offset="0" style="stop-color:rgb(198,133,56);stop-opacity:1"/><stop offset="0.48" style="stop-color:rgb(252,242,165);stop-opacity:1"/><stop offset="0.62" style="stop-color:rgb(249,237,159);stop-opacity:1"/><stop offset="0.71" style="stop-color:rgb(252,232,150);stop-opacity:1"/><stop offset="0.79" style="stop-color:rgb(242,215,134);stop-opacity:1"/><stop offset="0.87" style="stop-color:rgb(231,193,115);stop-opacity:1"/><stop offset="0.94" style="stop-color:rgb(215,166,88);stop-opacity:1"/><stop offset="1" style="stop-color:rgb(205,136,56);stop-opacity:1"/></linearGradient>
        <linearGradient id="_Linear29" x1="0" y1="0" x2="1" y2="0" gradientUnits="userSpaceOnUse" gradientTransform="matrix(1,0,0,-1,0,8.35926e-06)"><stop offset="0" style="stop-color:rgb(198,133,56);stop-opacity:1"/><stop offset="0.48" style="stop-color:rgb(252,242,165);stop-opacity:1"/><stop offset="0.62" style="stop-color:rgb(249,237,159);stop-opacity:1"/><stop offset="0.71" style="stop-color:rgb(252,232,150);stop-opacity:1"/><stop offset="0.79" style="stop-color:rgb(242,215,134);stop-opacity:1"/><stop offset="0.87" style="stop-color:rgb(231,193,115);stop-opacity:1"/><stop offset="0.94" style="stop-color:rgb(215,166,88);stop-opacity:1"/><stop offset="1" style="stop-color:rgb(205,136,56);stop-opacity:1"/></linearGradient>
        <linearGradient id="_Linear30" x1="0" y1="0" x2="1" y2="0" gradientUnits="userSpaceOnUse" gradientTransform="matrix(1,0,0,-1,0,4.08039e-06)"><stop offset="0" style="stop-color:rgb(198,133,56);stop-opacity:1"/><stop offset="0.48" style="stop-color:rgb(252,242,165);stop-opacity:1"/><stop offset="0.62" style="stop-color:rgb(249,237,159);stop-opacity:1"/><stop offset="0.71" style="stop-color:rgb(252,232,150);stop-opacity:1"/><stop offset="0.79" style="stop-color:rgb(242,215,134);stop-opacity:1"/><stop offset="0.87" style="stop-color:rgb(231,193,115);stop-opacity:1"/><stop offset="0.94" style="stop-color:rgb(215,166,88);stop-opacity:1"/><stop offset="1" style="stop-color:rgb(205,136,56);stop-opacity:1"/></linearGradient>
        <linearGradient id="_Linear31" x1="0" y1="0" x2="1" y2="0" gradientUnits="userSpaceOnUse" gradientTransform="matrix(1,0,0,-1,0,6.607e-06)"><stop offset="0" style="stop-color:rgb(198,133,56);stop-opacity:1"/><stop offset="0.48" style="stop-color:rgb(252,242,165);stop-opacity:1"/><stop offset="0.62" style="stop-color:rgb(249,237,159);stop-opacity:1"/><stop offset="0.71" style="stop-color:rgb(252,232,150);stop-opacity:1"/><stop offset="0.79" style="stop-color:rgb(242,215,134);stop-opacity:1"/><stop offset="0.87" style="stop-color:rgb(231,193,115);stop-opacity:1"/><stop offset="0.94" style="stop-color:rgb(215,166,88);stop-opacity:1"/><stop offset="1" style="stop-color:rgb(205,136,56);stop-opacity:1"/></linearGradient>
        <linearGradient id="_Linear32" x1="0" y1="0" x2="1" y2="0" gradientUnits="userSpaceOnUse" gradientTransform="matrix(1,0,0,-1,0,-5.81063e-06)"><stop offset="0" style="stop-color:rgb(198,133,56);stop-opacity:1"/><stop offset="0.48" style="stop-color:rgb(252,242,165);stop-opacity:1"/><stop offset="0.62" style="stop-color:rgb(249,237,159);stop-opacity:1"/><stop offset="0.71" style="stop-color:rgb(252,232,150);stop-opacity:1"/><stop offset="0.79" style="stop-color:rgb(242,215,134);stop-opacity:1"/><stop offset="0.87" style="stop-color:rgb(231,193,115);stop-opacity:1"/><stop offset="0.94" style="stop-color:rgb(215,166,88);stop-opacity:1"/><stop offset="1" style="stop-color:rgb(205,136,56);stop-opacity:1"/></linearGradient>
        <linearGradient id="_Linear33" x1="0" y1="0" x2="1" y2="0" gradientUnits="userSpaceOnUse" gradientTransform="matrix(1,0,0,-1,0,2.01709e-07)"><stop offset="0" style="stop-color:rgb(198,133,56);stop-opacity:1"/><stop offset="0.48" style="stop-color:rgb(252,242,165);stop-opacity:1"/><stop offset="0.62" style="stop-color:rgb(249,237,159);stop-opacity:1"/><stop offset="0.71" style="stop-color:rgb(252,232,150);stop-opacity:1"/><stop offset="0.79" style="stop-color:rgb(242,215,134);stop-opacity:1"/><stop offset="0.87" style="stop-color:rgb(231,193,115);stop-opacity:1"/><stop offset="0.94" style="stop-color:rgb(215,166,88);stop-opacity:1"/><stop offset="1" style="stop-color:rgb(205,136,56);stop-opacity:1"/></linearGradient>
    </defs>
</svg>
